<svg width="321" height="344" viewBox="0 0 321 344" fill="none" xmlns="http://www.w3.org/2000/svg">
<path d="M160.689 261.772C141.32 237.468 129.932 216.165 126.156 197.94C108.851 130.409 212.572 130.409 195.267 197.94C191.085 216.55 179.697 237.844 160.734 261.772H160.689ZM266.704 317.968C234.427 332.018 202.496 309.618 175.154 279.237C254.886 179.423 210.538 125.76 160.689 125.76C118.544 125.76 95.3379 161.451 104.455 202.882C109.772 225.282 123.816 250.759 146.224 279.237C121.26 306.901 99.7581 319.671 80.8802 321.382C42.5108 327.084 12.4982 289.873 26.1654 251.481C37.753 221.43 111.898 74.0759 115.083 66.1104C127.169 43.0351 134.697 22.0624 160.651 22.0624C185.467 22.0624 193.955 41.9684 206.978 68.006C234.604 122.199 275.544 204.201 295.104 251.481C305.211 276.858 294.053 306.188 266.704 317.968ZM302.771 213.511C203.87 3.0159 198.39 0 160.689 0C125.757 0 110.908 24.3031 95.721 55.8581C14.2556 218.782 6.35907 241.873 5.67616 243.883C-13.6774 297.086 26.1961 343.79 74.4571 343.79C91.1167 343.79 120.969 339.139 160.689 295.905C205.719 344.848 238.394 343.79 246.92 343.79C295.181 343.828 335.054 297.086 315.685 243.883C315.701 240.899 302.778 214.033 302.778 213.511H302.771Z" fill="#FF385C"/>
</svg>
